<svg width="992" height="598" viewBox="0 0 992 598" fill="none" xmlns="http://www.w3.org/2000/svg">
<g clip-path="url(#clip0_361_371)">
<g filter="url(#filter0_d_361_371)">
<path d="M201.329 -319.971C117.503 -256.604 -22.486 -75.7712 88.164 140.626C226.477 411.121 578.545 76.142 852.655 214.321C1071.94 324.864 990.409 718.186 922.231 901.029" stroke="#F5F5F5" stroke-width="12" stroke-linecap="round" stroke-linejoin="round" stroke-dasharray="18 18"/>
<path d="M638.224 969.854C737.397 935.208 926.024 805.93 887.15 565.984C838.557 266.052 400.915 477.108 182.563 261.544C7.88161 89.0934 206.085 -260.414 327.022 -413.612" stroke="#F5F5F5" stroke-width="12" stroke-linecap="round" stroke-linejoin="round" stroke-dasharray="18 18"/>
<path d="M680.322 863.188C586.443 910.33 362.353 955.902 217.025 761.057C35.3648 517.499 491.43 349.929 488.472 43.1129C486.106 -202.34 97.147 -303.093 -97.0367 -322.787" stroke="#DB504A" stroke-width="12" stroke-linecap="round" stroke-linejoin="round" stroke-dasharray="18 18"/>
<path d="M256.904 -396C326.713 -373.95 449.911 -237.744 384.235 130.684C302.14 591.218 -10.3234 715.143 256.904 999" stroke="#D9DADE" stroke-width="12" stroke-linecap="round" stroke-linejoin="round" stroke-dasharray="18 18"/>
<path d="M173.954 -253C90.1278 -189.633 -49.8613 -8.8 60.7888 207.597C199.101 478.093 551.17 143.113 825.28 281.292C1044.57 391.835 963.034 785.157 894.855 968" stroke="#F5F5F5" stroke-width="12" stroke-linecap="round" stroke-linejoin="round" stroke-dasharray="18 18"/>
<path d="M-975 -2393L1622.83 2990" stroke="#FFCA39" stroke-width="49.9582" stroke-linecap="round" stroke-linejoin="round" stroke-dasharray="74.94 74.94"/>
<circle cx="324" cy="299" r="69" fill="#F5F5F5" stroke="#FFCA39" stroke-width="20"/>
<g clip-path="url(#clip1_361_371)">
<path d="M341.793 331.565L318.095 290.518" stroke="#FFCA39" stroke-width="9.12704" stroke-linecap="round" stroke-linejoin="round"/>
<path d="M341.792 331.565L288.453 295.193L318.094 290.518L336.963 267.186L341.792 331.565Z" stroke="#FFCA39" stroke-width="9.12704" stroke-linecap="round" stroke-linejoin="round"/>
</g>
</g>
</g>
<defs>
<filter id="filter0_d_361_371" x="-1019.98" y="-2437.98" width="2687.8" height="5472.97" filterUnits="userSpaceOnUse" color-interpolation-filters="sRGB">
<feFlood flood-opacity="0" result="BackgroundImageFix"/>
<feColorMatrix in="SourceAlpha" type="matrix" values="0 0 0 0 0 0 0 0 0 0 0 0 0 0 0 0 0 0 127 0" result="hardAlpha"/>
<feOffset/>
<feGaussianBlur stdDeviation="10"/>
<feComposite in2="hardAlpha" operator="out"/>
<feColorMatrix type="matrix" values="0 0 0 0 0 0 0 0 0 0 0 0 0 0 0 0 0 0 0.05 0"/>
<feBlend mode="normal" in2="BackgroundImageFix" result="effect1_dropShadow_361_371"/>
<feBlend mode="normal" in="SourceGraphic" in2="effect1_dropShadow_361_371" result="shape"/>
</filter>
<clipPath id="clip0_361_371">
<rect width="992" height="598" fill="white"/>
</clipPath>
<clipPath id="clip1_361_371">
<rect width="73.1227" height="73.1227" fill="white" transform="translate(365.027 268.396) rotate(105)"/>
</clipPath>
</defs>
</svg>
