<svg width="494" height="653" viewBox="0 0 494 653" fill="none" xmlns="http://www.w3.org/2000/svg">
<g clip-path="url(#clip0_208_1598)">
<g opacity="0.2">
<path d="M382.682 799.886C529.558 799.886 648.625 680.82 648.625 533.943C648.625 387.067 529.558 268 382.682 268C235.805 268 116.738 387.067 116.738 533.943C116.738 680.82 235.805 799.886 382.682 799.886Z" stroke="#FFCA39" stroke-width="79.783" stroke-linecap="round" stroke-linejoin="round"/>
<path d="M276.305 587.132C276.305 587.132 316.196 640.32 382.682 640.32C449.168 640.32 489.059 587.132 489.059 587.132" stroke="#FFCA39" stroke-width="79.783" stroke-linecap="round" stroke-linejoin="round"/>
<path d="M302.899 453.946H303.165" stroke="#FFCA39" stroke-width="79.783" stroke-linecap="round" stroke-linejoin="round"/>
<path d="M462.465 453.946H462.731" stroke="#FFCA39" stroke-width="79.783" stroke-linecap="round" stroke-linejoin="round"/>
</g>
<rect x="182.361" y="55.8701" width="128.021" height="26.9173" rx="13.4586" fill="#FFCA39"/>
<path d="M223.722 54.8852C223.722 42.376 233.862 32.2354 246.372 32.2354V32.2354C258.881 32.2354 269.021 42.3761 269.021 54.8853V82.7873H223.722V54.8852Z" fill="#FFCA39"/>
</g>
<defs>
<clipPath id="clip0_208_1598">
<rect width="493.664" height="653" rx="27.6305" fill="white"/>
</clipPath>
</defs>
</svg>
