<svg width="790" height="139" viewBox="0 0 790 139" fill="none" xmlns="http://www.w3.org/2000/svg">
<path fill-rule="evenodd" clip-rule="evenodd" d="M0 0H790L751.114 69.5L790 139H0L38.8864 69.5L0 0ZM161.658 119.767C161.857 119.356 161.948 118.793 161.948 118.062H161.933V70.6269C161.933 65.1296 160.79 60.9724 158.503 58.14C156.216 55.3076 153.015 53.8914 148.915 53.8914C147.802 53.8914 146.674 54.0132 145.546 54.2417C144.403 54.4701 143.32 54.7746 142.299 55.1401C141.278 55.5056 140.333 55.9167 139.479 56.3888C138.625 56.8609 137.909 57.3329 137.36 57.805C135.135 55.1858 132.055 53.8762 128.123 53.8762C126.964 53.8762 125.851 53.998 124.754 54.2264C123.656 54.4549 122.635 54.7746 121.674 55.1553C120.714 55.536 119.83 55.9472 119.007 56.404C118.184 56.8609 117.498 57.3025 116.949 57.7289C116.354 56.7847 115.394 56.1147 114.068 55.734C112.742 55.3533 111.111 55.1553 109.19 55.1553H82.9557C80.9131 55.1553 79.2363 55.3533 77.9558 55.734C76.6753 56.1147 75.6693 56.6781 74.9376 57.4091C74.2059 58.14 73.7181 59.0689 73.4589 60.211C73.1998 61.3531 73.0779 62.6474 73.0779 64.1093V112.123C73.0779 113.63 73.1998 114.94 73.4589 116.052C73.7181 117.178 74.2059 118.092 74.9376 118.823C75.6693 119.554 76.6753 120.117 77.9558 120.498C79.2363 120.879 80.8978 121.077 82.9557 121.077H110.486C112.528 121.077 114.205 120.879 115.486 120.498C116.766 120.117 117.772 119.539 118.504 118.793C119.235 118.046 119.723 117.102 119.982 115.991C120.242 114.879 120.364 113.569 120.364 112.062V64.9469C120.958 64.353 121.766 63.7743 122.772 63.2413C123.778 62.7084 124.769 62.4343 125.76 62.4343C127.696 62.4343 129.083 63.0738 129.967 64.3682C130.836 65.6626 131.278 67.5204 131.278 69.9721V118.046C131.278 118.777 131.446 119.463 131.766 120.102C132.086 120.742 132.802 121.062 133.915 121.062H138.016C138.397 121.062 138.793 121.046 139.174 121.001C139.555 120.955 139.891 120.848 140.165 120.65C140.439 120.452 140.668 120.163 140.866 119.752C141.064 119.341 141.156 118.777 141.156 118.046V70.6116C141.156 69.6218 141.125 68.6929 141.034 67.8097C140.942 66.9265 140.836 66.089 140.714 65.2666C141.019 64.9773 141.384 64.6575 141.842 64.3377C142.299 64.018 142.787 63.7134 143.32 63.4393C143.854 63.1652 144.387 62.9368 144.951 62.7388C145.5 62.5409 146.034 62.4495 146.552 62.4495C148.488 62.4495 149.875 63.0891 150.759 64.3834C151.628 65.6778 152.07 67.5356 152.07 69.9873V118.062C152.07 118.793 152.238 119.478 152.558 120.117C152.878 120.757 153.595 121.077 154.707 121.077H158.747C159.128 121.077 159.524 121.062 159.905 121.016C160.287 120.97 160.622 120.864 160.927 120.666C161.216 120.468 161.46 120.178 161.658 119.767ZM244.096 110.189C246.047 107.539 247.571 104.372 248.684 100.656V100.641C249.782 96.9254 250.346 92.4484 250.346 87.6059C250.346 82.7635 249.767 78.5453 248.638 74.9668C247.51 71.3882 245.971 68.3122 244.02 65.7387C242.068 63.1652 239.812 61.0485 237.221 59.4039C234.63 57.7441 231.871 56.4345 228.944 55.4751C226.017 54.5158 222.999 53.8457 219.904 53.4803C216.795 53.1148 213.776 52.9321 210.819 52.9321C207.618 52.9321 204.402 53.1909 201.2 53.7087C197.999 54.2264 194.935 55.0487 191.993 56.1908C189.051 57.3329 186.338 58.81 183.807 60.6374C181.292 62.4495 179.097 64.6728 177.237 67.2919C175.378 69.9111 173.914 72.9415 172.847 76.3982C171.78 79.8549 171.247 83.6771 171.247 88.1389C171.247 92.6007 171.78 96.5599 172.847 100.017C173.914 103.473 175.378 106.504 177.237 109.123C179.097 111.742 181.277 113.95 183.807 115.747C186.338 117.544 189.066 119.006 191.993 120.117C194.92 121.244 197.999 122.051 201.2 122.569C204.402 123.087 207.618 123.346 210.819 123.346C213.807 123.346 216.871 123.148 219.996 122.767C223.121 122.386 226.154 121.701 229.081 120.742C232.008 119.782 234.767 118.442 237.328 116.722C239.889 115.001 242.145 112.823 244.096 110.189ZM320.619 76.2916C321.518 76.2916 321.96 75.8196 321.96 74.8754L321.945 74.8907V69.7436C321.945 68.8452 321.503 68.3884 320.604 68.3884H309.049V38.8463C309.049 38.1915 308.942 37.6585 308.729 37.2017C308.515 36.7448 308.241 36.3946 307.921 36.1357C307.601 35.8769 307.265 35.6941 306.9 35.5875C306.534 35.4809 306.214 35.42 305.909 35.42C305.101 35.42 304.156 35.5723 303.089 35.8769C302.022 36.1814 300.68 36.6383 299.049 37.2321L263.638 50.3586C262.785 50.6936 262.266 51.1961 262.068 51.8357C261.87 52.4752 261.778 53.13 261.778 53.7696V68.3731H255.102C254.218 68.3731 253.76 68.83 253.76 69.7284V74.8754C253.76 75.8196 254.202 76.2916 255.102 76.2916H261.778V101.707C261.778 106.641 262.495 110.539 263.928 113.417C265.361 116.295 267.342 118.458 269.888 119.919C272.419 121.381 275.437 122.31 278.928 122.721C282.418 123.133 286.184 123.331 290.254 123.331C293.089 123.331 295.909 123.163 298.729 122.843C301.549 122.508 304.232 122.082 306.778 121.549C309.323 121.016 311.686 120.407 313.896 119.722C316.107 119.036 318.012 118.351 319.643 117.666C319.902 117.574 320.207 117.392 320.543 117.087C320.893 116.783 321.061 116.204 321.061 115.351V110.402C321.061 109.839 320.832 109.565 320.36 109.565C320.101 109.565 319.78 109.625 319.399 109.732C319.018 109.839 318.607 109.945 318.149 110.052C317.692 110.158 317.219 110.265 316.701 110.372C316.183 110.478 315.695 110.539 315.223 110.539C313.134 110.539 311.579 109.915 310.573 108.666C309.567 107.417 309.064 105.27 309.064 102.225V76.2916H320.619ZM405.998 93.2707C406.379 92.8443 406.578 92.2504 406.578 91.4738L406.593 91.4281V87.8191C406.593 81.332 405.632 75.8652 403.712 71.4035C401.791 66.9417 399.139 63.3327 395.755 60.5917C392.37 57.8507 388.392 55.8711 383.788 54.668C379.185 53.4803 374.215 52.8712 368.865 52.8712C365.664 52.8712 362.447 53.13 359.246 53.6478C356.045 54.1655 352.966 54.9878 350.039 56.1299C347.097 57.272 344.384 58.7491 341.853 60.5765C339.338 62.3886 337.143 64.6118 335.283 67.231C333.423 69.8502 331.96 72.8806 330.893 76.3373C329.826 79.794 329.292 83.6162 329.292 88.078C329.292 92.5398 329.826 96.499 330.893 99.9557C331.96 103.412 333.423 106.443 335.283 109.062C337.143 111.681 339.323 113.889 341.853 115.686C344.384 117.483 347.112 118.945 350.039 120.057C352.966 121.183 356.045 121.99 359.246 122.508C362.447 123.026 365.664 123.285 368.865 123.285C372.981 123.285 376.731 122.98 380.16 122.356C383.575 121.732 386.654 120.955 389.367 120.011C392.081 119.067 394.459 118.031 396.517 116.889C398.575 115.762 400.297 114.696 401.715 113.706C401.898 113.569 402.065 113.417 402.233 113.25C402.401 113.082 402.492 112.854 402.492 112.549C402.492 112.29 402.385 112.001 402.172 111.651L399.931 108.179C399.718 107.844 399.535 107.615 399.383 107.478C399.23 107.341 398.956 107.28 398.575 107.28C398.315 107.28 397.934 107.448 397.447 107.768C396.959 108.087 396.334 108.453 395.587 108.834C394.84 109.229 394.002 109.58 393.056 109.9C392.127 110.219 391.075 110.387 389.916 110.387C388.666 110.387 387.386 110.113 386.06 109.61C384.733 109.108 383.499 108.209 382.371 106.945C381.227 105.681 380.221 103.976 379.352 101.859C378.468 99.7273 377.859 97.0929 377.523 93.9103H404.078C404.977 93.9103 405.617 93.6971 405.998 93.2707ZM484.93 63.3479C485.661 62.7997 486.18 62.282 486.5 61.8099L486.454 61.7947C486.774 61.3226 486.942 60.8506 486.942 60.3785C486.942 59.8608 486.713 59.3278 486.241 58.7643L483.039 55.4142C482.491 54.7746 481.835 54.4549 481.058 54.4549C480.707 54.4549 480.326 54.5462 479.899 54.7442C479.472 54.9422 479.03 55.2772 478.558 55.7492L463.162 71.0685V24.6082C463.162 23.1464 463.04 21.852 462.811 20.7099C462.582 19.5678 462.125 18.6389 461.439 17.908C460.753 17.177 459.823 16.6136 458.619 16.2329C457.43 15.8522 455.845 15.6542 453.878 15.6542H425.784C423.742 15.6542 422.065 15.8522 420.785 16.2329C419.504 16.6136 418.498 17.177 417.766 17.908C417.035 18.6389 416.547 19.5678 416.288 20.7099C416.029 21.852 415.907 23.1464 415.907 24.6082V112.138C415.907 113.646 416.029 114.955 416.288 116.067C416.547 117.194 417.035 118.107 417.766 118.838C418.498 119.569 419.504 120.133 420.785 120.513C422.065 120.894 423.727 121.092 425.784 121.092H452.735C454.869 121.092 456.622 120.909 457.994 120.544C459.351 120.178 460.418 119.615 461.195 118.869C461.958 118.107 462.491 117.194 462.765 116.097C463.04 115.016 463.177 113.737 463.177 112.275V85.3065C465.235 85.3827 466.957 85.6111 468.345 85.9765C469.732 86.342 470.86 86.9207 471.713 87.7125C472.567 88.5044 473.177 89.5551 473.543 90.8647C473.909 92.1743 474.091 93.8037 474.091 95.7833V118.046C474.091 118.777 474.259 119.463 474.579 120.102C474.899 120.742 475.616 121.062 476.729 121.062H480.829C481.225 121.062 481.607 121.046 481.988 121.001C482.369 120.955 482.704 120.848 482.978 120.65C483.253 120.452 483.481 120.163 483.68 119.752C483.878 119.341 483.969 118.777 483.969 118.046V96.4229C483.969 93.4687 483.634 90.8647 482.978 88.6414C482.308 86.4029 481.225 84.5451 479.732 83.0376C478.238 81.5452 476.271 80.3879 473.832 79.5961C471.393 78.8042 468.406 78.3322 464.854 78.2103L484.93 63.3479ZM564.547 116.158C564.806 115.062 564.928 113.813 564.928 112.397V83.7076C564.928 79.322 564.486 75.5759 563.587 72.439C562.687 69.302 561.422 66.6676 559.776 64.5205C558.129 62.3733 556.178 60.6526 553.938 59.343C551.697 58.0334 549.212 57.0284 546.499 56.3127C543.785 55.5969 540.904 55.1401 537.84 54.9269C534.776 54.7137 531.819 54.6071 528.435 54.6071C525.051 54.6071 521.789 54.866 518.618 55.3838C515.447 55.9015 512.505 56.5715 509.792 57.3786C507.079 58.2009 504.624 59.1146 502.445 60.1501C500.249 61.1856 498.466 62.1906 497.048 63.1804C496.789 63.3479 496.515 63.5611 496.24 63.82C495.966 64.0789 495.829 64.3834 495.829 64.7184C495.829 65.0535 495.936 65.3732 496.149 65.6778L498.329 69.1497C498.679 69.7132 499.045 69.9873 499.426 69.9873C499.64 69.9873 499.853 69.9111 500.067 69.7893C500.28 69.6523 500.509 69.5 500.768 69.3325C501.332 68.9975 502.018 68.6015 502.826 68.1752C503.634 67.7488 504.487 67.3529 505.387 66.9874C506.286 66.6219 507.216 66.3174 508.176 66.0585C509.137 65.7996 510.051 65.6778 510.905 65.6778C511.621 65.6778 512.383 65.7539 513.176 65.9062C513.969 66.0585 514.685 66.3783 515.356 66.8656C516.011 67.3681 516.56 68.099 516.987 69.0888C517.414 70.0787 517.627 71.4035 517.627 73.0785V77.5251C514.335 77.784 511.149 78.3778 508.069 79.322C504.99 80.2661 502.262 81.6061 499.884 83.3726C497.521 85.1238 495.631 87.3318 494.213 89.9967C492.795 92.6616 492.094 95.8594 492.094 99.5903C492.094 102.377 492.49 104.844 493.253 106.991C494.015 109.138 495.082 111.011 496.423 112.595C497.78 114.179 499.365 115.519 501.21 116.585C503.039 117.651 505.021 118.518 507.14 119.189C509.258 119.859 511.484 120.331 513.816 120.635C516.149 120.94 518.466 121.092 520.783 121.092H555.05C557.093 121.092 558.77 120.909 560.05 120.544C561.331 120.178 562.337 119.63 563.068 118.899C563.8 118.168 564.288 117.255 564.547 116.158ZM637.686 76.2916C638.57 76.2916 639.027 75.8196 639.027 74.8754L638.997 74.8907V69.7436C638.997 68.8452 638.555 68.3884 637.655 68.3884H626.101V38.8463C626.101 38.1915 625.994 37.6585 625.781 37.2017C625.567 36.7448 625.308 36.3946 624.988 36.1357C624.668 35.8769 624.332 35.6941 623.967 35.5875C623.601 35.4809 623.281 35.42 622.976 35.42C622.168 35.42 621.223 35.5723 620.156 35.8769C619.089 36.1814 617.747 36.6383 616.116 37.2321L580.705 50.3586C579.852 50.6936 579.333 51.1961 579.135 51.8357C578.937 52.4752 578.846 53.13 578.846 53.7696V68.3731H572.169C571.285 68.3731 570.827 68.83 570.827 69.7284V74.8754C570.827 75.8196 571.269 76.2916 572.169 76.2916H578.846V101.707C578.846 106.641 579.562 110.539 580.995 113.417C582.428 116.295 584.409 118.458 586.955 119.919C589.486 121.381 592.504 122.31 595.995 122.721C599.485 123.133 603.251 123.331 607.321 123.331C610.156 123.331 612.976 123.163 615.796 122.843C618.616 122.508 621.299 122.082 623.845 121.549C626.39 121.016 628.753 120.407 630.963 119.722C633.174 119.036 635.079 118.351 636.71 117.666C636.969 117.574 637.274 117.392 637.61 117.087C637.96 116.783 638.128 116.204 638.128 115.351V110.402C638.128 109.839 637.899 109.565 637.427 109.565C637.168 109.565 636.847 109.625 636.466 109.732C636.085 109.839 635.658 109.945 635.216 110.052C634.759 110.158 634.287 110.265 633.768 110.372C633.25 110.478 632.762 110.539 632.29 110.539C630.201 110.539 628.646 109.915 627.64 108.666C626.634 107.417 626.131 105.27 626.131 102.225V76.2916H637.686ZM716.633 119.767C716.831 119.356 716.922 118.793 716.922 118.062H716.892V58.2161C716.892 57.4852 716.8 56.9218 716.602 56.5106C716.419 56.0995 716.175 55.8101 715.901 55.6122C715.626 55.4294 715.291 55.3076 714.91 55.2619C714.529 55.2163 714.133 55.201 713.751 55.201H709.651C708.538 55.201 707.822 55.5208 707.502 56.1604C707.181 56.7999 707.014 57.4852 707.014 58.2161V110.661C706.419 111.042 705.581 111.453 704.483 111.879C703.401 112.306 702.349 112.519 701.374 112.519C699.453 112.519 698.096 111.94 697.304 110.783C696.511 109.625 696.115 107.829 696.115 105.377V65.8605C696.115 64.9246 696.102 63.9139 696.089 62.8062L696.084 62.4495C696.054 61.216 695.764 60.0435 695.215 58.9775C694.666 57.8964 693.737 56.9979 692.456 56.267C691.176 55.536 689.301 55.1706 686.816 55.1706H658.722C656.679 55.1706 655.003 55.3685 653.722 55.7492C652.442 56.1299 651.436 56.6934 650.704 57.4243C649.972 58.1552 649.484 59.0841 649.225 60.2262C648.966 61.3683 648.844 62.6627 648.844 64.1246V100.352C648.844 104.417 649.378 107.859 650.445 110.646C651.512 113.432 653.143 115.701 655.353 117.437C657.548 119.173 660.338 120.422 663.691 121.199C667.045 121.975 671.161 122.356 675.658 122.356C680.155 122.356 684.133 122.143 687.624 121.716C691.115 121.29 694.148 120.787 696.709 120.209C699.285 119.63 701.404 119.051 703.096 118.442C704.788 117.848 706.099 117.376 707.044 117.026C707.044 118.442 707.212 119.478 707.532 120.117C707.852 120.757 708.569 121.077 709.681 121.077H713.782C714.163 121.077 714.559 121.062 714.94 121.016C715.322 120.97 715.657 120.864 715.931 120.666C716.206 120.468 716.434 120.178 716.633 119.767ZM456.759 21.6845C456.378 21.4104 455.86 21.2276 455.22 21.1667C454.58 21.1058 453.741 21.0753 452.72 21.0753V115.671C453.741 115.671 454.58 115.64 455.22 115.58C455.86 115.519 456.378 115.351 456.759 115.062C457.141 114.788 457.4 114.377 457.522 113.844C457.644 113.311 457.72 112.549 457.72 111.559V25.1869C457.72 24.2427 457.659 23.4966 457.522 22.9331C457.4 22.3697 457.141 21.9586 456.759 21.6845ZM303.896 107.341C304.095 108.209 304.369 109.016 304.735 109.717L304.75 109.732C305.101 110.448 305.558 111.072 306.091 111.605C306.625 112.153 307.219 112.671 307.86 113.189C307.006 113.189 306.046 113.067 304.979 112.839C303.912 112.595 302.905 112.138 301.96 111.453C301.015 110.768 300.223 109.823 299.582 108.62C298.942 107.417 298.622 105.849 298.622 103.915V42.7751L299.643 42.3182C300.116 42.1051 300.543 41.9528 300.954 41.8614C301.351 41.7853 301.686 41.7396 301.945 41.7396C302.662 41.7396 303.119 42.0137 303.317 42.5467C303.515 43.0796 303.607 43.7801 303.607 44.6329V104.159C303.607 105.407 303.698 106.458 303.896 107.341ZM371.67 88.5196C371.67 93.2402 372.142 97.1538 373.087 100.291L373.072 100.321C374.002 103.458 375.176 105.986 376.593 107.92C378.011 109.854 379.52 111.27 381.151 112.199C382.782 113.113 384.276 113.722 385.648 114.026C383.468 114.026 381.243 113.569 378.971 112.671C376.7 111.757 374.642 110.295 372.782 108.255C370.923 106.214 369.398 103.58 368.194 100.336C366.99 97.0929 366.395 93.1489 366.395 88.5196C366.395 84.1949 366.914 80.4793 367.935 77.388C368.971 74.2968 370.374 71.7689 372.142 69.7893C373.91 67.8249 375.968 66.3783 378.301 65.4494C380.633 64.5357 383.087 64.0332 385.648 63.9418C383.986 64.1855 382.31 64.8098 380.648 65.7691C378.971 66.7285 377.477 68.1752 376.151 70.1091C374.84 72.043 373.758 74.5099 372.92 77.5098C372.081 80.525 371.67 84.1796 371.67 88.5196ZM391.349 69.2106C392.569 69.7741 393.62 70.7182 394.52 72.0735L394.535 72.0887C395.434 73.444 396.151 75.2409 396.684 77.4946C397.218 79.7483 397.492 82.5959 397.492 86.0222H377.279C377.401 82.1543 377.828 79.0631 378.529 76.7484C379.23 74.4338 380.084 72.6521 381.09 71.4035C382.096 70.1548 383.178 69.3325 384.337 68.9518C385.48 68.5711 386.547 68.3731 387.538 68.3731C388.849 68.3731 390.13 68.6472 391.349 69.2106ZM237.907 72.2105C236.886 70.7791 235.727 69.7741 234.447 69.2106C233.166 68.6472 231.855 68.3731 230.529 68.3731C229.508 68.3731 228.365 68.5863 227.099 69.0127C225.834 69.4391 224.66 70.3527 223.578 71.7537C222.481 73.1547 221.581 75.1495 220.85 77.7383C220.118 80.327 219.767 83.799 219.767 88.1389C219.767 92.4788 220.072 95.9508 220.667 98.57C221.261 101.189 222.054 103.184 223.045 104.555C224.02 105.925 225.179 106.823 226.474 107.265C227.785 107.691 229.142 107.905 230.544 107.905C231.871 107.905 233.182 107.615 234.493 107.037C235.804 106.458 236.947 105.423 237.953 103.915C238.959 102.407 239.767 100.336 240.392 97.702C241.017 95.0676 241.322 91.7022 241.322 87.6364C241.322 83.7685 241.017 80.6011 240.392 78.1189C239.767 75.6368 238.944 73.6724 237.922 72.2258L237.907 72.2105ZM215.301 98.7832C215.956 101.539 216.825 103.763 217.892 105.407C218.959 107.067 220.179 108.255 221.551 108.986C222.923 109.717 224.31 110.204 225.727 110.463C223.837 110.463 221.901 110.128 219.92 109.458C217.923 108.803 216.124 107.631 214.523 105.956C212.923 104.28 211.597 102.012 210.575 99.1334C209.554 96.2554 209.036 92.555 209.036 88.1237C209.036 83.6924 209.63 80.0377 210.804 77.1444C211.978 74.2511 213.426 71.9669 215.133 70.2919C216.84 68.6168 218.67 67.4595 220.59 66.7894C222.526 66.1346 224.234 65.7996 225.727 65.7996C225.041 65.9671 224.294 66.2412 223.456 66.6067C222.618 66.9722 221.795 67.5204 220.956 68.2209C220.118 68.9213 219.295 69.8198 218.487 70.8857C217.679 71.9517 216.962 73.2917 216.337 74.8754C215.712 76.4591 215.225 78.3474 214.859 80.5402C214.493 82.733 214.31 85.2608 214.31 88.1389C214.31 92.4636 214.63 96.0117 215.301 98.7832ZM109.921 60.5917V115.686C110.943 115.686 111.781 115.656 112.421 115.595C113.062 115.534 113.58 115.366 113.961 115.077C114.342 114.803 114.601 114.392 114.738 113.859C114.86 113.326 114.937 112.564 114.937 111.575V64.7184C114.937 63.2109 114.54 62.1601 113.748 61.5358C112.955 60.9114 111.69 60.6069 109.937 60.6069L109.921 60.5917ZM690.672 106.093V64.7184C690.672 63.7743 690.612 63.0281 690.474 62.4647C690.352 61.9013 690.093 61.4901 689.697 61.216C689.301 60.9419 688.798 60.7592 688.157 60.6983C687.517 60.6374 686.679 60.6069 685.657 60.6069V105.849C685.657 107.615 685.993 109.032 686.679 110.097C687.365 111.163 688.157 112.001 689.057 112.58C689.956 113.158 690.855 113.554 691.755 113.767C692.654 113.981 693.31 114.087 693.737 114.087C692.669 112.976 691.892 111.833 691.389 110.676C690.901 109.519 690.657 107.996 690.657 106.108L690.672 106.093ZM620.964 107.341C621.162 108.209 621.436 109.016 621.802 109.717L621.817 109.732C622.168 110.448 622.625 111.072 623.159 111.605C623.692 112.153 624.287 112.671 624.927 113.189C624.073 113.189 623.113 113.067 622.046 112.839C620.979 112.595 619.973 112.138 619.028 111.453C618.083 110.768 617.29 109.823 616.65 108.62C616.009 107.417 615.689 105.849 615.689 103.915V42.7751L616.711 42.3182C617.183 42.1051 617.61 41.9528 618.022 41.8614C618.418 41.7853 618.753 41.7396 619.012 41.7396C619.729 41.7396 620.186 42.0137 620.384 42.5467C620.583 43.0796 620.674 43.7801 620.674 44.6329V104.159C620.674 105.407 620.765 106.458 620.964 107.341ZM555.66 67.627C554.578 66.1042 553.389 64.9469 552.093 64.155C550.812 63.3632 549.608 62.7693 548.495 62.3886C549.014 62.952 549.623 63.7439 550.325 64.7641C551.026 65.7996 551.681 67.1092 552.276 68.6929C552.87 70.2766 553.389 72.1801 553.815 74.3881C554.242 76.5962 554.456 79.1392 554.456 82.0173V115.671C555.477 115.671 556.315 115.64 556.956 115.58C557.596 115.519 558.114 115.351 558.495 115.062C558.876 114.788 559.135 114.377 559.273 113.844C559.395 113.311 559.471 112.549 559.471 111.559V82.2762C559.471 78.8042 559.105 75.8652 558.373 73.4897C557.641 71.1142 556.742 69.1498 555.645 67.627H555.66ZM502.048 94.4128C502.597 92.7072 503.527 91.2301 504.807 89.9358V89.951C506.088 88.6566 507.765 87.6364 509.868 86.8597C511.957 86.0831 514.548 85.7024 517.627 85.7024V112.854C514.548 112.854 511.957 112.503 509.868 111.818C507.78 111.133 506.088 110.189 504.807 108.986C503.527 107.783 502.597 106.382 502.048 104.768C501.484 103.154 501.21 101.448 501.21 99.6511C501.21 97.8543 501.484 96.103 502.048 94.4128Z" fill="#F5F5F5"/>
</svg>
