<svg width="335" height="469" viewBox="0 0 335 469" fill="none" xmlns="http://www.w3.org/2000/svg">
<path d="M6.2698 4.5C6.26947 36 4.12165 71.4687 6.26956 170.811C8.95444 294.988 76.2777 370.301 146.924 387.891C203.441 401.964 330 408.701 330 464" stroke="#D9DADE" stroke-width="9" stroke-linecap="round" stroke-linejoin="round" stroke-dasharray="18 18"/>
<path d="M153 5L153 464" stroke="#F3C137" stroke-width="9" stroke-linecap="round" stroke-linejoin="round" stroke-dasharray="18 18"/>
<path d="M63 208C74.0457 208 83 199.046 83 188C83 176.954 74.0457 168 63 168C51.9543 168 43 176.954 43 188C43 199.046 51.9543 208 63 208Z" stroke="#D9DADE" stroke-width="6" stroke-linecap="round" stroke-linejoin="round"/>
<path d="M71 196C71 196 68 192 63 192C58 192 55 196 55 196" stroke="#D9DADE" stroke-width="6" stroke-linecap="round" stroke-linejoin="round"/>
<path d="M57 182H57.02" stroke="#D9DADE" stroke-width="6" stroke-linecap="round" stroke-linejoin="round"/>
<path d="M69 182H69.02" stroke="#D9DADE" stroke-width="6" stroke-linecap="round" stroke-linejoin="round"/>
<path d="M220 332C231.046 332 240 323.046 240 312C240 300.954 231.046 292 220 292C208.954 292 200 300.954 200 312C200 323.046 208.954 332 220 332Z" stroke="#FFCA39" stroke-width="6" stroke-linecap="round" stroke-linejoin="round"/>
<path d="M212 316C212 316 215 320 220 320C225 320 228 316 228 316" stroke="#FFCA39" stroke-width="6" stroke-linecap="round" stroke-linejoin="round"/>
<path d="M214 306H214.02" stroke="#FFCA39" stroke-width="6" stroke-linecap="round" stroke-linejoin="round"/>
<path d="M226 306H226.02" stroke="#FFCA39" stroke-width="6" stroke-linecap="round" stroke-linejoin="round"/>
</svg>
